<svg width="102" height="32" viewBox="0 0 102 32" fill="none" xmlns="http://www.w3.org/2000/svg">
<path d="M6.11247 6.90237C6.93303 6.90237 7.69101 7.0455 8.3864 7.33176C9.08179 7.61802 9.70068 8.02593 10.2222 8.55551L10.3126 7.16001H13.727V18.5602C13.727 20.2133 13.421 21.6518 12.816 22.8827C12.211 24.1136 11.3627 25.0725 10.2709 25.7524C9.17914 26.4394 7.89962 26.7758 6.4254 26.7758C5.61179 26.7758 4.74951 26.6613 3.83855 26.4251C2.92759 26.1961 1.99577 25.8311 1.04308 25.3373L2.13485 22.2529C2.55208 22.6179 3.13621 22.9256 3.89418 23.1761C4.6452 23.4266 5.36841 23.5554 6.0638 23.5554C7.30854 23.5554 8.296 23.126 9.02615 22.2672C9.75631 21.4085 10.1179 20.2563 10.1179 18.8035V18.7964C9.58942 19.2758 8.99138 19.6551 8.3099 19.9271C7.62842 20.199 6.89826 20.335 6.11247 20.335C4.94422 20.335 3.89418 20.0416 2.96931 19.4619C2.04444 18.8822 1.32124 18.0879 0.792744 17.0717C0.264248 16.0626 0 14.9104 0 13.6151C0 12.3198 0.264248 11.1748 0.792744 10.1585C1.32124 9.14949 2.04444 8.34797 2.96931 7.7683C3.89418 7.19579 4.93726 6.90237 6.11247 6.90237ZM6.92608 17.1074C7.84399 17.1074 8.60892 16.7782 9.20695 16.1127C9.81194 15.4471 10.111 14.617 10.111 13.6223C10.111 12.6204 9.81194 11.7902 9.20695 11.1318C8.60197 10.4663 7.84399 10.1371 6.92608 10.1371C6.00816 10.1371 5.24324 10.4663 4.6452 11.1318C4.04021 11.7974 3.74119 12.6275 3.74119 13.6223C3.74119 14.6242 4.04021 15.4543 4.6452 16.1127C5.24324 16.7711 6.00816 17.1074 6.92608 17.1074Z" fill="black"/>
<path d="M14.9563 16.5971C14.9563 15.7321 15.1985 14.9536 15.676 14.2689C16.1535 13.5841 16.8108 13.0435 17.6551 12.6399C18.4924 12.2435 19.4543 12.0416 20.5407 12.0416C20.8798 12.0416 21.2396 12.0633 21.6202 12.1065C22.0008 12.1498 22.3814 12.2074 22.762 12.2723C22.4852 10.8595 21.5026 10.1532 19.8003 10.1532C18.79 10.1532 17.7796 10.5496 16.7693 11.3353L15.5307 8.17818C16.3957 7.7457 17.2468 7.42135 18.091 7.21232C18.9284 7.00329 19.7311 6.90237 20.4854 6.90237C21.6894 6.90237 22.7413 7.14024 23.627 7.60875C24.5128 8.08448 25.2048 8.74761 25.6961 9.61256C26.1874 10.4775 26.4296 11.4866 26.4296 12.6471V20.165H23.4056L23.1703 18.7739C22.7067 19.2856 22.1392 19.6893 21.468 19.9848C20.7968 20.2803 20.0632 20.4245 19.2674 20.4245C18.0011 20.4245 16.97 20.0713 16.1673 19.3577C15.3577 18.6585 14.9563 17.7359 14.9563 16.5971ZM18.5547 15.7393C18.5547 16.1718 18.7138 16.525 19.0322 16.7845C19.3505 17.0512 19.7726 17.1809 20.2985 17.1809C21.0113 17.1809 21.6133 16.9575 22.1046 16.5034C22.589 16.0493 22.8381 15.4942 22.8381 14.8383V14.5788C22.5267 14.4779 22.2015 14.3914 21.8486 14.3338C21.4957 14.2761 21.1497 14.2401 20.8037 14.2401C20.0978 14.2401 19.5442 14.3698 19.1498 14.6293C18.7484 14.896 18.5547 15.2636 18.5547 15.7393Z" fill="black"/>
<path d="M31.5516 0.346222V20.0147H27.8637V0.346222H31.5516Z" fill="black"/>
<path d="M32.7809 16.5971C32.7809 15.7321 33.0231 14.9536 33.5006 14.2689C33.978 13.5841 34.6354 13.0435 35.4797 12.6399C36.317 12.2435 37.2789 12.0416 38.3653 12.0416C38.7044 12.0416 39.0642 12.0633 39.4448 12.1065C39.8254 12.1498 40.206 12.2074 40.5866 12.2723C40.3098 10.8595 39.3272 10.1532 37.6249 10.1532C36.6145 10.1532 35.6042 10.5496 34.5939 11.3353L33.3552 8.17818C34.2202 7.7457 35.0714 7.42135 35.9156 7.21232C36.7529 7.00329 37.5557 6.90237 38.3099 6.90237C39.514 6.90237 40.5658 7.14024 41.4516 7.60875C42.3374 8.08448 43.0294 8.74761 43.5207 9.61256C44.012 10.4775 44.2542 11.4866 44.2542 12.6471V20.165H41.2302L40.9949 18.7739C40.5312 19.2856 39.9638 19.6893 39.2926 19.9848C38.6213 20.2803 37.8878 20.4245 37.092 20.4245C35.8257 20.4245 34.7946 20.0713 33.9919 19.3577C33.1822 18.6585 32.7809 17.7359 32.7809 16.5971ZM36.3793 15.7393C36.3793 16.1718 36.5384 16.525 36.8567 16.7845C37.1751 17.0512 37.5972 17.1809 38.1231 17.1809C38.8359 17.1809 39.4379 16.9575 39.9292 16.5034C40.4136 16.0493 40.6627 15.4942 40.6627 14.8383V14.5788C40.3513 14.4779 40.0261 14.3914 39.6732 14.3338C39.3202 14.2761 38.9743 14.2401 38.6283 14.2401C37.9224 14.2401 37.3688 14.3698 36.9744 14.6293C36.573 14.896 36.3793 15.2636 36.3793 15.7393Z" fill="black"/>
<path d="M44.8688 13.6962C44.8688 12.405 45.133 11.2502 45.6612 10.2316C46.1894 9.22019 46.9122 8.41681 47.8366 7.83579C48.761 7.25477 49.8106 6.96068 50.9782 6.96068C51.7636 6.96068 52.4934 7.09696 53.1745 7.36954C53.8487 7.64212 54.4534 8.02229 54.9816 8.50288V0.755981H58.5958V20.1663H55.1832L55.0928 18.7675C54.5646 19.2912 53.953 19.7 53.2579 19.9941C52.5629 20.281 51.7984 20.4245 50.9852 20.4245C49.8175 20.4245 48.768 20.1304 47.8436 19.5494C46.9192 18.9684 46.1964 18.1722 45.6681 17.1536C45.1329 16.1494 44.8688 14.9945 44.8688 13.6962ZM48.6081 13.6962C48.6081 14.7004 48.907 15.5325 49.5117 16.1924C50.1164 16.8595 50.874 17.1895 51.7914 17.1895C52.7089 17.1895 53.4734 16.8595 54.0711 16.1924C54.6758 15.5253 54.9747 14.6932 54.9747 13.6962C54.9747 12.6919 54.6758 11.8599 54.0711 11.2C53.4664 10.5329 52.7089 10.2029 51.7914 10.2029C50.874 10.2029 50.1094 10.5329 49.5117 11.2C48.907 11.867 48.6081 12.6991 48.6081 13.6962Z" fill="black"/>
<path d="M60.2349 20.0147V7.15878H63.4086L63.583 8.99636C64.4968 7.60037 65.7593 6.90237 67.3567 6.90237C67.9008 6.90237 68.4658 6.98784 69.0447 7.15878L68.5425 10.3567C68.0542 10.1929 67.5799 10.1146 67.1056 10.1146C66.129 10.1146 65.3478 10.4778 64.7549 11.2114C64.162 11.945 63.862 12.9849 63.862 14.3382V20.0076H60.2349V20.0147Z" fill="black"/>
<path d="M70.4789 2.80569C70.4789 2.18651 70.6546 1.69543 71.0128 1.31823C71.371 0.941025 71.844 0.755981 72.4252 0.755981C73.0065 0.755981 73.4795 0.941025 73.8377 1.31823C74.1959 1.69543 74.3716 2.19363 74.3716 2.80569C74.3716 3.41776 74.1959 3.91595 73.8377 4.29316C73.4795 4.67036 73.0065 4.85541 72.4252 4.85541C71.844 4.85541 71.371 4.67036 71.0128 4.29316C70.6546 3.91595 70.4789 3.41776 70.4789 2.80569ZM70.6681 20.0147V7.16845H74.1824V20.0076H70.6681V20.0147Z" fill="black"/>
<path d="M79.2254 20.0147H75.6009V7.15878H79.0232L79.1139 8.51916C79.9991 7.43655 81.2049 6.90237 82.7244 6.90237C84.6621 6.90237 86.0352 7.74282 86.8368 9.43083C87.255 8.61887 87.8196 7.9921 88.5375 7.55764C89.2485 7.12317 90.0918 6.90237 91.0537 6.90237C92.5802 6.90237 93.7651 7.4508 94.6155 8.54053C95.4589 9.63025 95.884 11.1544 95.884 13.0989V20.0147H92.2596V13.0989C92.2596 12.1017 92.0295 11.361 91.5765 10.8624C91.1165 10.3639 90.5658 10.1146 89.9246 10.1146C89.2694 10.1146 88.7118 10.371 88.2517 10.8838C87.7917 11.3966 87.5617 12.1658 87.5617 13.1843V20.0076H83.9372V13.0917C83.9372 12.0946 83.7072 11.3539 83.2541 10.8553C82.7941 10.3567 82.2434 10.1075 81.6022 10.1075C80.947 10.1075 80.3894 10.3639 79.9294 10.8767C79.4693 11.3895 79.2393 12.1587 79.2393 13.1772V20.0147H79.2254Z" fill="black"/>
<path d="M97.3182 17.9659C97.3182 17.347 97.5032 16.8562 97.8802 16.4791C98.2573 16.1021 98.7552 15.9171 99.367 15.9171C99.9859 15.9171 100.477 16.1021 100.854 16.4791C101.231 16.8562 101.416 17.3542 101.416 17.9659C101.416 18.5777 101.231 19.0757 100.854 19.4528C100.477 19.8298 99.9788 20.0148 99.367 20.0148C98.7481 20.0148 98.2573 19.8298 97.8802 19.4528C97.5103 19.0757 97.3182 18.5777 97.3182 17.9659Z" fill="black"/>
<path d="M15.2546 24.6095V23.5446H20.272V24.6095H18.4017V29.6538H17.1249V24.6095H15.2546ZM28.1134 26.5992C28.1134 27.2654 27.9871 27.8322 27.7345 28.2995C27.484 28.7668 27.1419 29.1238 26.7084 29.3704C26.2768 29.615 25.7916 29.7373 25.2527 29.7373C24.7098 29.7373 24.2226 29.614 23.791 29.3674C23.3595 29.1208 23.0184 28.7639 22.7679 28.2965C22.5173 27.8292 22.392 27.2634 22.392 26.5992C22.392 25.933 22.5173 25.3662 22.7679 24.8989C23.0184 24.4316 23.3595 24.0756 23.791 23.831C24.2226 23.5844 24.7098 23.4611 25.2527 23.4611C25.7916 23.4611 26.2768 23.5844 26.7084 23.831C27.1419 24.0756 27.484 24.4316 27.7345 24.8989C27.9871 25.3662 28.1134 25.933 28.1134 26.5992ZM26.8038 26.5992C26.8038 26.1677 26.7392 25.8037 26.6099 25.5074C26.4827 25.2111 26.3027 24.9864 26.07 24.8333C25.8373 24.6801 25.5649 24.6036 25.2527 24.6036C24.9405 24.6036 24.668 24.6801 24.4353 24.8333C24.2027 24.9864 24.0217 25.2111 23.8924 25.5074C23.7652 25.8037 23.7015 26.1677 23.7015 26.5992C23.7015 27.0307 23.7652 27.3947 23.8924 27.691C24.0217 27.9873 24.2027 28.212 24.4353 28.3651C24.668 28.5183 24.9405 28.5948 25.2527 28.5948C25.5649 28.5948 25.8373 28.5183 26.07 28.3651C26.3027 28.212 26.4827 27.9873 26.6099 27.691C26.7392 27.3947 26.8038 27.0307 26.8038 26.5992ZM36.3642 26.5992C36.3642 27.2654 36.2379 27.8322 35.9853 28.2995C35.7348 28.7668 35.3927 29.1238 34.9592 29.3704C34.5276 29.615 34.0424 29.7373 33.5035 29.7373C32.9606 29.7373 32.4734 29.614 32.0418 29.3674C31.6103 29.1208 31.2692 28.7639 31.0186 28.2965C30.7681 27.8292 30.6428 27.2634 30.6428 26.5992C30.6428 25.933 30.7681 25.3662 31.0186 24.8989C31.2692 24.4316 31.6103 24.0756 32.0418 23.831C32.4734 23.5844 32.9606 23.4611 33.5035 23.4611C34.0424 23.4611 34.5276 23.5844 34.9592 23.831C35.3927 24.0756 35.7348 24.4316 35.9853 24.8989C36.2379 25.3662 36.3642 25.933 36.3642 26.5992ZM35.0546 26.5992C35.0546 26.1677 34.99 25.8037 34.8607 25.5074C34.7335 25.2111 34.5535 24.9864 34.3208 24.8333C34.0881 24.6801 33.8157 24.6036 33.5035 24.6036C33.1913 24.6036 32.9188 24.6801 32.6861 24.8333C32.4535 24.9864 32.2725 25.2111 32.1432 25.5074C32.016 25.8037 31.9523 26.1677 31.9523 26.5992C31.9523 27.0307 32.016 27.3947 32.1432 27.691C32.2725 27.9873 32.4535 28.212 32.6861 28.3651C32.9188 28.5183 33.1913 28.5948 33.5035 28.5948C33.8157 28.5948 34.0881 28.5183 34.3208 28.3651C34.5535 28.212 34.7335 27.9873 34.8607 27.691C34.99 27.3947 35.0546 27.0307 35.0546 26.5992ZM39.001 29.6538V23.5446H40.2926V28.5889H42.9117V29.6538H39.001ZM48.7612 25.3016C48.7373 25.061 48.6349 24.874 48.4539 24.7408C48.273 24.6076 48.0274 24.5409 47.7171 24.5409C47.5063 24.5409 47.3283 24.5708 47.1832 24.6304C47.038 24.6881 46.9266 24.7686 46.8491 24.872C46.7735 24.9755 46.7357 25.0928 46.7357 25.224C46.7317 25.3334 46.7546 25.4289 46.8043 25.5104C46.856 25.5919 46.9266 25.6625 47.0161 25.7222C47.1056 25.7799 47.209 25.8306 47.3263 25.8743C47.4437 25.9161 47.569 25.9519 47.7022 25.9817L48.2511 26.113C48.5176 26.1726 48.7622 26.2522 48.9849 26.3516C49.2076 26.451 49.4005 26.5733 49.5636 26.7185C49.7267 26.8637 49.8529 27.0347 49.9424 27.2316C50.0339 27.4285 50.0806 27.6542 50.0826 27.9087C50.0806 28.2826 49.9852 28.6067 49.7963 28.8812C49.6093 29.1536 49.3389 29.3654 48.9849 29.5166C48.6329 29.6657 48.2083 29.7403 47.7112 29.7403C47.218 29.7403 46.7884 29.6647 46.4225 29.5136C46.0586 29.3624 45.7742 29.1387 45.5694 28.8424C45.3665 28.5441 45.2601 28.1752 45.2502 27.7357H46.5001C46.514 27.9405 46.5726 28.1116 46.6761 28.2488C46.7815 28.384 46.9217 28.4864 47.0967 28.556C47.2736 28.6237 47.4735 28.6575 47.6962 28.6575C47.915 28.6575 48.1049 28.6256 48.266 28.562C48.4291 28.4984 48.5553 28.4099 48.6448 28.2965C48.7343 28.1832 48.7791 28.0529 48.7791 27.9057C48.7791 27.7685 48.7383 27.6532 48.6568 27.5597C48.5772 27.4663 48.4599 27.3867 48.3048 27.3211C48.1516 27.2555 47.9637 27.1958 47.741 27.1421L47.0758 26.9751C46.5607 26.8498 46.154 26.6539 45.8557 26.3874C45.5574 26.1209 45.4093 25.762 45.4113 25.3105C45.4093 24.9407 45.5077 24.6175 45.7066 24.3411C45.9074 24.0647 46.1829 23.8489 46.5329 23.6938C46.8829 23.5387 47.2806 23.4611 47.7261 23.4611C48.1795 23.4611 48.5752 23.5387 48.9133 23.6938C49.2534 23.8489 49.5179 24.0647 49.7068 24.3411C49.8957 24.6175 49.9931 24.9377 49.9991 25.3016H48.7612Z" fill="black"/>
</svg>
